<svg id="Capa_1" enable-background="new 0 0 512 512" height="512" viewBox="0 0 512 512" width="512" xmlns="http://www.w3.org/2000/svg"><g><g><path d="m425.7 10c-17.69 17.69-31.8 31.99-43.33 43.64l42.14 42.14c11.63-11.54 25.92-25.66 43.62-43.35z" fill="#c1b0b5"/><path d="m466.68 376.13-12.34 62.94-.34-.07c-2.535 0-394.481 0-396 0l-.34.07-12.34-62.94.68-.13h420z" fill="#c1b0b5"/><path d="m170.43 286c.72-17.7 2.87-42.63 9.01-61.79-11-5.58-21.31-12.98-30.51-22.17l21.22-21.21c9.04-9.05 19.52-15.76 30.71-20.15-11.07-5.6-21.46-13.03-30.71-22.28l21.21-21.21c32.9-32.9 84.92-35.01 120.27-6.32 21.29-7.85 29.59-15.65 70.74-57.23l42.14 42.14c-42.01 41.69-49.34 49.71-57.13 70.84 28.43 35.03 26.62 86.44-5.44 119.38-43.154 0-150.704 0-191.51 0z" fill="#b8ecbc"/><g fill="#ffda8f"><path d="m57.66 439.07 12.34 62.93h372l12.34-62.93c-70.094-.158-310.294-.023-396.68 0z"/><path d="m439 196-18 90c-80.337 0-259.784 0-330 0l-18-90h-63c.137.699 35.072 178.866 35.32 180.13l.68-.13h420l.68.13c.136-.693 35.07-178.857 35.32-180.13z"/></g></g><g><path d="m509.722 189.646c-1.9-2.309-4.732-3.646-7.722-3.646h-63c-4.767 0-8.871 3.364-9.806 8.039l-16.392 81.961h-30.416c21.068-33.869 20.178-77.816-3.646-110.976 8.185-19.52 23.122-32.19 61.146-70.408 10.131-10.042 21.614-21.423 35.313-35.113 1.876-1.876 2.93-4.419 2.931-7.072 0-2.652-1.053-5.196-2.929-7.072l-42.43-42.43c-1.875-1.875-4.418-2.929-7.071-2.929s-5.196 1.054-7.071 2.929c-14.964 14.965-27.632 27.771-37.811 38.061-.102.045-38.096 43.703-76.328 5.487-3.907-3.906-10.239-3.905-14.142.003-3.905 3.905-3.903 10.237.002 14.142 13.65 13.645 31.577 20.467 49.503 20.467.11 0 .22-.007.33-.008-11.234 10.213-18.099 14.704-26.959 18.427-8.947-6.428-18.822-11.284-29.428-14.464-5.291-1.588-10.864 1.417-12.45 6.707-1.586 5.291 1.417 10.865 6.707 12.451 9.989 2.994 19.166 7.851 27.276 14.433 2.741 2.225 6.449 2.837 9.762 1.618 22.069-8.138 31.855-16.717 67.312-52.438l27.944 27.943c-35.621 35.454-44.18 45.247-52.348 67.404-1.221 3.312-.605 7.021 1.618 9.761 24.646 30.368 23.537 73.961-2.052 103.078h-29.403c-13.077-23.971-17.223-53.106-9.718-81.243 1.423-5.336-1.749-10.815-7.085-12.239-5.335-1.423-10.816 1.749-12.239 7.085-1.395 5.229-2.468 10.577-3.209 15.968-18.548 7.941-40.559 3.895-55.045-10.6-3.904-3.907-10.235-3.907-14.142-.004-3.906 3.904-3.908 10.236-.003 14.143 17.869 17.878 44.057 24.528 68.058 17.984.522 16.856 4.329 33.538 11.118 48.907h-124.91c1.047-15.536 3.28-34.073 7.98-48.738 1.499-4.676-.62-9.748-4.999-11.97-7.328-3.718-14.217-8.264-20.571-13.568l13.832-13.826c7.851-7.859 17.032-13.885 27.288-17.909 3.669-1.439 6.15-4.899 6.336-8.837.186-3.937-1.958-7.616-5.475-9.395-7.415-3.751-14.368-8.332-20.765-13.673 13.459-13.381 14.464-14.65 18.036-17.749 4.172-3.618 4.62-9.935 1.001-14.106s-9.935-4.621-14.107-1.001c-4.568 3.962-5.6 5.343-26.46 26.102-3.905 3.905-3.905 10.237 0 14.143 5.339 5.339 11.089 10.178 17.2 14.48-6.183 3.921-11.933 8.534-17.198 13.806l-21.22 21.21c-1.877 1.875-2.931 4.42-2.931 7.073 0 2.654 1.055 5.198 2.933 7.073 7.792 7.785 16.437 14.497 25.778 20.022-3.862 15.211-5.771 32.422-6.699 46.863h-61.748l-16.392-81.961c-.935-4.677-5.039-8.041-9.806-8.041h-63c-2.989 0-5.822 1.337-7.722 3.646-1.899 2.309-2.667 5.345-2.091 8.278l60 306c.92 4.692 5.032 8.076 9.813 8.076h372c4.781 0 8.893-3.384 9.813-8.076l60-306c.575-2.934-.192-5.97-2.091-8.278zm-84.017-165.499 28.276 28.276c-10.62 10.589-29.441 29.244-29.441 29.244l-28.066-28.066c8.582-8.675 18.088-18.28 29.231-29.454zm21.493 181.853h42.65l-13.725 70h-42.925zm11.278 160h-43.278l14-70h43.004zm-12.353 63c-83.856 0-297.815 0-380.247 0l-8.431-43h397.109zm-118.671 63 5.849-43h45.614l-8.19 43zm-61.452 0v-43h47.117l-5.849 43zm-61.268 0-5.849-43h47.117v43zm-63.457 0-8.19-43h45.614l5.849 43zm-101.477-196h43.004l14 70h-43.278zm137.732 0h68.47v70h-58.468zm156.94 0-10.002 70h-58.468v-70zm60.332 70h-50.132l10.002-70h54.13zm-237.475-70 10.002 70h-50.132l-14-70zm-92.525-90 14 70h-42.925l-13.725-70zm4.996 243h42.927l8.19 43h-42.686zm363.973 43h-42.686l8.19-43h42.927z"/><circle cx="236" cy="92" r="10"/></g></g></svg>